<?xml version="1.0" encoding="utf-8"?>
<!-- Generator: Adobe Illustrator 27.5.0, SVG Export Plug-In . SVG Version: 6.00 Build 0)  -->
<svg version="1.1" xmlns="http://www.w3.org/2000/svg" xmlns:xlink="http://www.w3.org/1999/xlink" x="0px" y="0px"
	 viewBox="0 0 1122 1122" style="enable-background:new 0 0 1122 1122;" xml:space="preserve">
<g id="Bg">
	<rect style="fill:#FFFFFF;" width="1122" height="1122"/>
</g>
<g id="Object">
	<g>
		<path style="fill:#AAD4C8;" d="M667.896,751.082c2.992-1.69,5.901-3.45,8.784-5.276l1.809-1.149
			c2.501-1.628,4.976-3.311,7.437-5.042l2.339-1.659c2.243-1.631,4.433-3.314,6.608-5.024c0.843-0.673,1.713-1.323,2.556-2.006
			c2.121-1.734,4.215-3.522,6.282-5.341l2.352-2.026c2.774-2.498,5.494-5.062,8.131-7.696
			c39.242-39.279,63.431-93.291,63.458-153.198c-0.027-59.896-24.217-113.915-63.458-153.194
			c-37.583-37.542-88.668-61.256-145.478-63.255v372.104l65.117,48.42l1.224-0.411l-0.054-0.037
			c11.149-4.062,21.891-9.012,32.116-14.757L667.896,751.082z M631.373,625.092c-6.391-4.565-11.571-10.191-15.528-16.836
			c-3.97-6.656-6.826-14.219-8.58-22.674h-14.848c-1.536,0-2.787-0.822-3.712-2.458c-0.938-1.632-1.401-4.385-1.401-8.223
			c0-1.928,0.095-3.573,0.258-4.902c0.136-1.343,0.395-2.417,0.748-3.213l1.401-1.75c0.571-0.384,1.251-0.572,2.094-0.572h13.747
			c0-1.257-0.014-2.563-0.068-3.963c-0.054-1.383-0.068-2.743-0.068-4.082c0-1.669,0.013-3.331,0.068-4.956
			c0.054-1.642,0.068-3.202,0.068-4.708h-13.747c-1.564,0-2.692-0.778-3.4-2.325c-0.721-1.547-1.101-4.307-1.101-8.24
			c0-2.002,0.123-3.678,0.394-5.034c0.259-1.329,0.612-2.383,1.101-3.185l1.619-1.717l1.999-0.487h15.922
			c2.053-8.033,5.072-15.385,9.042-22.051c3.97-6.663,9.083-12.401,15.324-17.208c6.214-4.817,13.693-8.556,22.408-11.19
			c8.702-2.641,18.887-3.954,30.526-3.954c5.357,0,10.538,0.309,15.542,0.941c5.004,0.626,9.505,1.458,13.516,2.444
			c4.038,0.996,7.356,2.036,9.98,3.08c2.625,1.044,4.501,1.944,5.657,2.696c1.128,0.768,1.944,1.543,2.475,2.329
			c0.503,0.798,0.911,1.784,1.237,2.957c0.299,1.172,0.558,2.651,0.762,4.463c0.204,1.802,0.313,3.99,0.313,6.595
			c0,2.25-0.109,4.099-0.313,5.517c-0.204,1.438-0.531,2.591-0.993,3.464c-0.476,0.877-1.047,1.489-1.699,1.822
			c-0.693,0.33-1.414,0.507-2.257,0.507c-1.646,0-3.576-0.595-5.793-1.758c-2.216-1.179-4.949-2.468-8.199-3.828
			c-3.25-1.397-7.139-2.647-11.667-3.779c-4.541-1.135-9.844-1.69-15.922-1.69c-5.779,0-10.823,0.639-15.147,1.938
			c-4.337,1.302-8.063,3.219-11.232,5.714c-3.127,2.515-5.684,5.534-7.628,9.056c-1.972,3.518-3.467,7.496-4.487,11.935h42.342
			l2.108,0.487l1.604,1.717c0.435,0.802,0.762,1.856,1.007,3.185c0.271,1.356,0.394,3.032,0.394,5.034
			c0,3.934-0.476,6.693-1.401,8.24c-0.911,1.547-2.148,2.325-3.712,2.325h-45.442c-0.109,1.325-0.177,2.699-0.231,4.066
			c-0.054,1.39-0.068,2.916-0.068,4.592c0,1.516,0.014,2.991,0.068,4.464c0.054,1.458,0.123,2.981,0.231,4.589h45.442l2.108,0.572
			l1.604,1.75c0.435,0.796,0.762,1.87,1.007,3.213c0.271,1.329,0.394,2.974,0.394,4.902c0,3.837-0.476,6.591-1.401,8.223
			c-0.911,1.635-2.148,2.458-3.712,2.458h-42.505c0.829,4.256,2.23,8.094,4.188,11.49c1.944,3.393,4.542,6.262,7.792,8.604
			c3.25,2.345,7.22,4.154,11.911,5.411c4.691,1.248,10.28,1.87,16.766,1.87c6.078,0,11.381-0.581,15.855-1.747
			c4.487-1.177,8.362-2.475,11.68-3.903c3.291-1.424,6.051-2.719,8.253-3.885c2.231-1.176,4.052-1.771,5.507-1.771
			c0.802,0,1.564,0.177,2.243,0.507c0.653,0.35,1.238,0.989,1.7,1.944c0.448,0.972,0.788,2.302,1.006,4.035
			c0.19,1.699,0.299,3.981,0.299,6.839c0,3.685-0.408,6.595-1.238,8.736c-0.816,2.131-1.972,3.793-3.399,4.959
			c-1.441,1.173-3.535,2.369-6.255,3.583c-2.746,1.204-6.105,2.343-10.062,3.39c-3.957,1.04-8.498,1.907-13.611,2.577
			c-5.085,0.676-10.741,1.006-16.915,1.006c-11.653,0-21.973-1.22-30.933-3.647C645.446,633.153,637.778,629.658,631.373,625.092z"
			/>
		<path style="fill:#AAD4C8;" d="M667.786,801.606l-99.07-73.667v51.378v7.723h-7.723c-59.896-0.017-116.244-23.35-158.654-65.719
			c-42.369-42.407-65.702-98.747-65.702-158.654c0-59.896,23.347-116.239,65.702-158.65c23.456-23.425,51.181-40.996,81.38-52.061
			l-34.116-25.362l-1.291-1.543c-27.358,12.996-52.146,30.532-73.263,51.683c-47.536,47.509-77.015,113.398-77.015,185.933
			c0,72.545,29.479,138.431,77.015,185.94c45.864,45.901,108.874,74.891,178.424,76.836c2.176,0.071,4.338,0.159,6.527,0.159
			l-0.217,54.692l1.224-0.904v0.904L667.786,801.606z"/>
		<path style="fill:#616E7D;" d="M491.253,357.558c-31.749,10.786-60.182,28.683-83.447,51.915
			c-39.242,39.279-63.445,93.298-63.458,153.194c0.013,59.906,24.217,113.918,63.458,153.198
			c39.269,39.242,93.291,63.442,153.201,63.452V406.948l-0.585,0.132c-1.632,0-3.25-0.513-4.609-1.52L491.253,357.558z
			 M509.215,623.978c-9.287,6.108-20.26,10.051-32.838,11.931v14.593c0,4.742-3.848,8.573-8.566,8.573h-15.732
			c-4.732,0-8.567-3.831-8.567-8.573V635.93c-14.236-2.268-27.018-7.7-38.358-16.412c-7.002-5.341-12.604-10.919-16.779-16.738
			c-1.224-1.357-1.836-2.872-1.876-4.562c-0.055-2.597,1.291-4.698,4.038-6.285l16.018-9.413l0.041-0.024
			c0,0,3.113-1.374,4.705-1.374c2.896,0,5.221,1.139,6.948,3.403c7.941,8.59,16.357,14.447,25.264,17.605v-36.944
			c-20.613-3.182-35.53-10.902-44.721-23.228c-5.466-7.247-8.294-15.576-8.471-24.978c-0.354-19.111,10.021-33.534,31.151-43.158
			c6.554-2.991,13.91-5.051,22.041-6.193v-16.215c0-4.739,3.835-8.581,8.567-8.581h15.732c4.719,0,8.566,3.842,8.566,8.581v16.663
			c17.323,3.005,31.478,10.762,42.451,23.258c1.577,1.428,2.352,3.084,2.311,4.981c-0.041,2.359-1.264,4.3-3.671,5.833
			l-17.622,11.034l-0.054,0.017c0,0-3.087,1.584-5.357,1.577c-2.774-0.02-5.235-0.914-7.329-2.665
			c-3.44-2.978-7.016-5.31-10.728-7.05v29.602c21.062,2.927,36.563,10.347,46.503,22.194c6.133,7.41,9.069,16.452,8.852,27.075
			C531.392,600.978,523.873,614.297,509.215,623.978z"/>
		<path style="fill:#616E7D;" d="M433.151,517.075c0.041,6.316,3.495,10.776,10.361,13.414v-26.233l-1.21,0.479
			C436.157,507.666,433.111,511.786,433.151,517.075z"/>
		<path style="fill:#616E7D;" d="M476.377,601.549c1.197-0.537,2.38-1.118,3.44-1.809c6.133-3.709,9.233-8.943,9.287-15.711
			c0.041-7.285-4.229-12.217-12.727-14.899V601.549z"/>
		<path style="fill:#FFFFFF;" d="M553.474,825.443l-0.19,54.814c-0.014,2.916,1.618,5.585,4.229,6.911
			c1.088,0.567,2.298,0.833,3.495,0.833c1.604,0,3.222-0.496,4.582-1.502l106.78-78.678c1.958-1.451,3.127-3.756,3.127-6.207
			c0.013-2.448-1.142-4.745-3.114-6.211l-38.548-28.66l-65.117-48.42V346.218c-2.298-0.081-4.623-0.166-6.948-0.177l-0.177,53.322
			l-1.169-0.863v0.863L454.2,320.393l106.807-78.673l-0.014,0.853l1.156-0.853l-0.204,58.016c2.189,0.006,4.378,0.105,6.554,0.163
			l0.218-58.152c0.013-2.92-1.632-5.595-4.229-6.911c-1.102-0.561-2.298-0.836-3.481-0.836c-1.632,0-3.237,0.51-4.596,1.502
			l-106.78,78.678c-1.972,1.452-3.127,3.752-3.127,6.204c0,1.75,0.748,3.317,1.809,4.667l1.291,1.543l34.116,25.362
			c-30.2,11.065-57.924,28.636-81.38,52.061c-42.355,42.41-65.702,98.753-65.702,158.65c0,59.906,23.333,116.247,65.702,158.654
			c42.41,42.369,98.758,65.702,158.654,65.719h7.723v-7.723v-51.378l99.07,73.667l-106.779,78.688v-0.904l-1.224,0.904l0.217-54.692
			C557.812,825.602,555.649,825.513,553.474,825.443z M561.007,779.317c-59.91-0.01-113.932-24.211-153.201-63.452
			c-39.242-39.279-63.445-93.291-63.458-153.198c0.013-59.896,24.217-113.915,63.458-153.194
			c23.265-23.232,51.697-41.129,83.447-51.915l64.56,48.002c1.36,1.007,2.978,1.52,4.609,1.52l0.585-0.132V779.317z"/>
		<path style="fill:#82BFAB;" d="M452.079,659.076h15.732c4.719,0,8.566-3.831,8.566-8.573v-14.593
			c12.577-1.88,23.55-5.823,32.838-11.931c14.658-9.681,22.178-23,22.517-40.044c0.217-10.623-2.719-19.665-8.852-27.075
			c-9.939-11.847-25.441-19.267-46.503-22.194v-29.602c3.712,1.741,7.288,4.073,10.728,7.05c2.094,1.751,4.555,2.645,7.329,2.665
			c2.27,0.007,5.357-1.577,5.357-1.577l0.054-0.017l17.622-11.034c2.407-1.533,3.63-3.475,3.671-5.833
			c0.041-1.897-0.734-3.553-2.311-4.981c-10.973-12.496-25.128-20.253-42.451-23.258v-16.663c0-4.739-3.848-8.581-8.566-8.581
			h-15.732c-4.732,0-8.567,3.842-8.567,8.581v16.215c-8.131,1.142-15.487,3.202-22.041,6.193
			c-21.131,9.623-31.505,24.047-31.151,43.158c0.177,9.403,3.005,17.731,8.471,24.978c9.192,12.326,24.108,20.046,44.721,23.228
			v36.944c-8.906-3.158-17.323-9.015-25.264-17.605c-1.727-2.264-4.052-3.403-6.948-3.403c-1.591,0-4.705,1.374-4.705,1.374
			l-0.041,0.024l-16.018,9.413c-2.746,1.587-4.093,3.688-4.038,6.285c0.04,1.69,0.652,3.205,1.876,4.562
			c4.174,5.819,9.776,11.398,16.779,16.738c11.34,8.712,24.122,14.144,38.358,16.412v14.572
			C443.513,655.245,447.347,659.076,452.079,659.076z M476.377,569.13c8.498,2.682,12.768,7.614,12.727,14.899
			c-0.054,6.768-3.154,12.003-9.287,15.711c-1.06,0.691-2.243,1.272-3.44,1.809V569.13z M433.151,517.075
			c-0.04-5.29,3.005-9.41,9.151-12.34l1.21-0.479v26.233C436.646,527.852,433.192,523.391,433.151,517.075z"/>
		<path style="fill:#FFFFFF;" d="M589.711,565.037l-1.401,1.75c-0.353,0.796-0.612,1.87-0.748,3.213
			c-0.163,1.329-0.258,2.974-0.258,4.902c0,3.837,0.462,6.591,1.401,8.223c0.925,1.635,2.176,2.458,3.712,2.458h14.848
			c1.754,8.454,4.609,16.018,8.58,22.674c3.957,6.646,9.137,12.272,15.528,16.836c6.404,4.566,14.073,8.06,23.034,10.487
			c8.96,2.427,19.281,3.647,30.933,3.647c6.174,0,11.83-0.33,16.915-1.006c5.113-0.67,9.654-1.536,13.611-2.577
			c3.957-1.047,7.316-2.186,10.062-3.39c2.719-1.214,4.813-2.409,6.255-3.583c1.428-1.166,2.583-2.828,3.399-4.959
			c0.83-2.142,1.238-5.052,1.238-8.736c0-2.859-0.109-5.14-0.299-6.839c-0.218-1.733-0.558-3.063-1.006-4.035
			c-0.462-0.955-1.047-1.594-1.7-1.944c-0.679-0.33-1.441-0.507-2.243-0.507c-1.455,0-3.277,0.595-5.507,1.771
			c-2.203,1.166-4.962,2.462-8.253,3.885c-3.318,1.428-7.193,2.726-11.68,3.903c-4.474,1.166-9.776,1.747-15.855,1.747
			c-6.486,0-12.075-0.622-16.766-1.87c-4.691-1.257-8.661-3.066-11.911-5.411c-3.25-2.343-5.847-5.212-7.792-8.604
			c-1.958-3.396-3.358-7.233-4.188-11.49h42.505c1.564,0,2.802-0.822,3.712-2.458c0.925-1.632,1.401-4.385,1.401-8.223
			c0-1.928-0.123-3.573-0.394-4.902c-0.245-1.343-0.571-2.417-1.007-3.213l-1.604-1.75l-2.108-0.572h-45.442
			c-0.109-1.607-0.177-3.131-0.231-4.589c-0.054-1.473-0.068-2.948-0.068-4.464c0-1.676,0.014-3.202,0.068-4.592
			c0.054-1.367,0.123-2.74,0.231-4.066h45.442c1.564,0,2.802-0.778,3.712-2.325c0.925-1.547,1.401-4.307,1.401-8.24
			c0-2.002-0.123-3.678-0.394-5.034c-0.245-1.329-0.571-2.383-1.007-3.185l-1.604-1.717l-2.108-0.487h-42.342
			c1.02-4.439,2.515-8.416,4.487-11.935c1.944-3.522,4.501-6.541,7.628-9.056c3.168-2.495,6.894-4.413,11.232-5.714
			c4.324-1.298,9.368-1.938,15.147-1.938c6.078,0,11.381,0.554,15.922,1.69c4.528,1.132,8.417,2.382,11.667,3.779
			c3.25,1.36,5.983,2.648,8.199,3.828c2.217,1.162,4.147,1.758,5.793,1.758c0.843,0,1.564-0.177,2.257-0.507
			c0.652-0.333,1.224-0.945,1.699-1.822c0.462-0.874,0.789-2.026,0.993-3.464c0.204-1.417,0.313-3.267,0.313-5.517
			c0-2.604-0.109-4.793-0.313-6.595c-0.204-1.812-0.462-3.291-0.762-4.463c-0.326-1.173-0.734-2.159-1.237-2.957
			c-0.53-0.785-1.346-1.56-2.475-2.329c-1.156-0.751-3.032-1.652-5.657-2.696c-2.624-1.044-5.942-2.084-9.98-3.08
			c-4.011-0.986-8.512-1.819-13.516-2.444c-5.003-0.632-10.184-0.941-15.542-0.941c-11.64,0-21.824,1.312-30.526,3.954
			c-8.715,2.634-16.194,6.374-22.408,11.19c-6.241,4.806-11.354,10.544-15.324,17.208c-3.97,6.666-6.989,14.018-9.042,22.051
			h-15.922l-1.999,0.487l-1.619,1.717c-0.489,0.802-0.842,1.856-1.101,3.185c-0.271,1.356-0.394,3.032-0.394,5.034
			c0,3.934,0.381,6.693,1.101,8.24c0.707,1.547,1.836,2.325,3.4,2.325h13.747c0,1.506-0.014,3.066-0.068,4.708
			c-0.054,1.625-0.068,3.287-0.068,4.956c0,1.339,0.013,2.699,0.068,4.082c0.054,1.401,0.068,2.706,0.068,3.963h-13.747
			C590.962,564.465,590.282,564.653,589.711,565.037z"/>
		<path style="fill:#616E7D;" d="M706.063,723.561l-2.352,2.026c-2.067,1.818-4.161,3.607-6.282,5.341
			c-0.843,0.683-1.713,1.332-2.556,2.006c-2.175,1.71-4.365,3.393-6.608,5.024l-2.339,1.659c-2.461,1.731-4.936,3.413-7.437,5.042
			l-1.809,1.149c-2.883,1.825-5.792,3.586-8.784,5.276l-0.776,0.455c-10.225,5.745-20.967,10.695-32.116,14.757l0.054,0.037
			l42.736,31.933c25.727-12.771,49.086-29.577,69.129-49.657c47.55-47.509,77.042-113.395,77.042-185.94
			c0-72.535-29.492-138.424-77.042-185.933c-45.85-45.901-108.846-74.883-178.424-76.835c-2.175-0.058-4.364-0.157-6.554-0.163
			l0.204-58.016l-1.156,0.853l0.014-0.853L454.2,320.393l106.222,78.97V398.5l1.169,0.863l0.177-53.322
			c2.325,0.01,4.651,0.095,6.948,0.177c56.809,1.999,107.894,25.713,145.478,63.255c39.242,39.279,63.431,93.298,63.458,153.194
			c-0.027,59.906-24.217,113.918-63.458,153.198C711.557,718.499,708.837,721.063,706.063,723.561z"/>
	</g>
</g>
</svg>
